<svg width="19" height="19" viewBox="0 0 19 19" fill="none" xmlns="http://www.w3.org/2000/svg">
<path d="M13.6794 14.2373V16.0197C13.6794 16.1385 13.724 16.2425 13.8131 16.3316C13.9022 16.4208 14.0062 16.4653 14.125 16.4653C14.2438 16.4653 14.3478 16.4208 14.4369 16.3316C14.5261 16.2425 14.5706 16.1385 14.5706 16.0197V14.2373H16.353C16.4719 14.2373 16.5758 14.1927 16.6649 14.1036C16.7541 14.0145 16.7986 13.9105 16.7986 13.7917C16.7986 13.6729 16.7541 13.5689 16.6649 13.4798C16.5758 13.3907 16.4719 13.3461 16.353 13.3461H14.5706V11.5637C14.5706 11.4449 14.5261 11.3409 14.4369 11.2518C14.3478 11.1626 14.2438 11.1181 14.125 11.1181C14.0062 11.1181 13.9022 11.1626 13.8131 11.2518C13.724 11.3409 13.6794 11.4449 13.6794 11.5637V13.3461H11.897C11.7782 13.3461 11.6742 13.3907 11.5851 13.4798C11.496 13.5689 11.4514 13.6729 11.4514 13.7917C11.4514 13.9105 11.496 14.0145 11.5851 14.1036C11.6742 14.1927 11.7782 14.2373 11.897 14.2373H13.6794ZM14.125 18.2477C12.8922 18.2477 11.8415 17.8134 10.9728 16.9448C10.1036 16.0756 9.66899 15.0245 9.66899 13.7917C9.66899 12.5589 10.1036 11.5078 10.9728 10.6386C11.8415 9.77 12.8922 9.33568 14.125 9.33568C15.3578 9.33568 16.4089 9.77 17.2781 10.6386C18.1467 11.5078 18.581 12.5589 18.581 13.7917C18.581 15.0245 18.1467 16.0756 17.2781 16.9448C16.4089 17.8134 15.3578 18.2477 14.125 18.2477ZM5.21298 5.77087H12.3426C12.5951 5.77087 12.8066 5.68531 12.9771 5.5142C13.1483 5.34368 13.2338 5.13217 13.2338 4.87966C13.2338 4.62716 13.1483 4.41535 12.9771 4.24424C12.8066 4.07372 12.5951 3.98846 12.3426 3.98846H5.21298C4.96047 3.98846 4.74866 4.07372 4.57755 4.24424C4.40703 4.41535 4.32177 4.62716 4.32177 4.87966C4.32177 5.13217 4.40703 5.34368 4.57755 5.5142C4.74866 5.68531 4.96047 5.77087 5.21298 5.77087ZM8.48815 16.4653H2.53937C2.0492 16.4653 1.62945 16.2909 1.28009 15.9422C0.931337 15.5928 0.756958 15.1731 0.756958 14.6829V2.20605C0.756958 1.71589 0.931337 1.29613 1.28009 0.946782C1.62945 0.598024 2.0492 0.423645 2.53937 0.423645H15.0162C15.5064 0.423645 15.9261 0.598024 16.2755 0.946782C16.6242 1.29613 16.7986 1.71589 16.7986 2.20605V8.17712C16.3679 7.96917 15.9336 7.81321 15.4957 7.70924C15.0572 7.60526 14.6003 7.55327 14.125 7.55327C13.9616 7.55327 13.8095 7.55684 13.6687 7.56397C13.5273 7.57169 13.3823 7.59041 13.2338 7.62011C13.1001 7.59041 12.9516 7.57169 12.7882 7.56397C12.6248 7.55684 12.4763 7.55327 12.3426 7.55327H5.21298C4.96047 7.55327 4.74866 7.63853 4.57755 7.80905C4.40703 7.98016 4.32177 8.19197 4.32177 8.44448C4.32177 8.69699 4.40703 8.9085 4.57755 9.07902C4.74866 9.25013 4.96047 9.33568 5.21298 9.33568H9.7804C9.51303 9.58819 9.27152 9.86298 9.05585 10.16C8.84077 10.4571 8.65154 10.7765 8.48815 11.1181H5.21298C4.96047 11.1181 4.74866 11.2033 4.57755 11.3739C4.40703 11.545 4.32177 11.7568 4.32177 12.0093C4.32177 12.2618 4.40703 12.4733 4.57755 12.6438C4.74866 12.8149 4.96047 12.9005 5.21298 12.9005H7.95343C7.92372 13.049 7.90501 13.194 7.89728 13.3354C7.89015 13.4762 7.88659 13.6283 7.88659 13.7917C7.88659 14.2819 7.93115 14.7388 8.02027 15.1624C8.10939 15.5854 8.26535 16.0197 8.48815 16.4653Z" fill="white"/>
</svg>
