<svg width="19" height="19" viewBox="0 0 19 19" fill="none" xmlns="http://www.w3.org/2000/svg">
<path d="M11.3374 8.5272L12.897 7.59144L14.4566 8.5272C14.6051 8.61632 14.7536 8.61632 14.9022 8.5272C15.0507 8.43808 15.125 8.31183 15.125 8.14844V2.68982H10.669V8.14844C10.669 8.31183 10.7432 8.43808 10.8918 8.5272C11.0403 8.61632 11.1888 8.61632 11.3374 8.5272ZM6.21294 15.1667C5.72278 15.1667 5.30332 14.9923 4.95457 14.6435C4.60521 14.2942 4.43054 13.8744 4.43054 13.3843V2.68982C4.43054 2.19966 4.60521 1.7799 4.95457 1.43055C5.30332 1.08179 5.72278 0.90741 6.21294 0.90741H16.9074C17.3976 0.90741 17.8173 1.08179 18.1667 1.43055C18.5154 1.7799 18.6898 2.19966 18.6898 2.68982V13.3843C18.6898 13.8744 18.5154 14.2942 18.1667 14.6435C17.8173 14.9923 17.3976 15.1667 16.9074 15.1667H6.21294ZM2.64813 18.7315C2.15797 18.7315 1.73851 18.5571 1.38975 18.2083C1.0404 17.859 0.865723 17.4392 0.865723 16.9491V5.36343C0.865723 5.11092 0.951278 4.89911 1.12239 4.728C1.29291 4.55748 1.50442 4.47222 1.75693 4.47222C2.00943 4.47222 2.22124 4.55748 2.39235 4.728C2.56287 4.89911 2.64813 5.11092 2.64813 5.36343V16.9491H14.2338C14.4863 16.9491 14.6978 17.0346 14.8683 17.2057C15.0394 17.3763 15.125 17.5878 15.125 17.8403C15.125 18.0928 15.0394 18.3043 14.8683 18.4748C14.6978 18.6459 14.4863 18.7315 14.2338 18.7315H2.64813Z" fill="white"/>
</svg>
